<svg width="147" height="48" xmlns="http://www.w3.org/2000/svg"><g fill="none" fill-rule="evenodd"><path d="M146.918 41.526c0 3.574-2.907 6.474-6.493 6.474H6.495C2.907 48 0 45.1 0 41.526V6.57C0 2.995 2.908.097 6.494.097h133.931c3.586 0 6.493 2.898 6.493 6.473v34.956" fill="#1A1919"/><path d="M38.312 31.76c-.778 1.719-1.15 2.486-2.151 4.004-1.398 2.121-3.367 4.761-5.807 4.784-2.168.02-2.725-1.407-5.668-1.39-2.942.015-3.557 1.415-5.726 1.395-2.44-.022-4.306-2.407-5.703-4.527-3.907-5.929-4.316-12.886-1.906-16.585 1.713-2.629 4.413-4.168 6.954-4.168 2.586 0 4.212 1.414 6.35 1.414 2.075 0 3.34-1.416 6.33-1.416 2.26 0 4.654 1.226 6.36 3.348-5.59 3.054-4.682 11.014.967 13.142" fill="#FFFFFE"/><path d="M28.716 12.903c1.086-1.39 1.911-3.354 1.612-5.36-1.774.122-3.85 1.248-5.063 2.715-1.1 1.332-2.008 3.308-1.654 5.227 1.937.06 3.941-1.093 5.105-2.582m22.827 9.148c.19.733.393 1.495.656 2.317l1.508 4.354h-4.293l1.487-4.382c.227-.71.442-1.479.642-2.289zm-1.328-2.7l-5.597 16.422h2.563l1.671-5.042h5.42l1.718 5.042h2.634l-5.621-16.422h-2.788zm15.031 6.314c2.222 0 3.216 2.052 3.216 4.085 0 2.622-1.269 4.252-3.31 4.252a3.02 3.02 0 01-2.937-2.306 3.16 3.16 0 01-.089-.804v-1.998c0-.181.04-.4.08-.614.012-.068.025-.135.035-.201.372-1.422 1.606-2.414 3.005-2.414zm.62-2.057c-1.697 0-3.057.654-3.962 1.895l-.1-1.633h-2.28l.014.209c.067 1.017.095 2.137.095 3.745v12.658h2.493v-5.907c.773.923 2.008 1.46 3.407 1.46 1.457 0 2.8-.57 3.778-1.601 1.091-1.15 1.667-2.804 1.667-4.78 0-1.745-.5-3.254-1.448-4.363a4.748 4.748 0 00-3.663-1.683zm12.216 2.057c2.221 0 3.216 2.052 3.216 4.085 0 2.622-1.27 4.252-3.311 4.252a3.02 3.02 0 01-2.937-2.306 3.163 3.163 0 01-.088-.804v-1.998c0-.182.04-.403.08-.616.012-.067.025-.133.036-.2.37-1.42 1.605-2.413 3.004-2.413zm.62-2.057c-1.697 0-3.056.654-3.963 1.895l-.099-1.633h-2.28l.014.209c.067 1.018.096 2.137.096 3.745v12.658h2.492v-5.907c.774.923 2.008 1.46 3.407 1.46 1.457 0 2.799-.57 3.779-1.601 1.09-1.15 1.666-2.804 1.666-4.78 0-1.745-.5-3.254-1.449-4.363a4.746 4.746 0 00-3.663-1.683zm16.081 2.702c-2.326-.899-3.072-1.605-3.072-2.91 0-1.098.876-2.206 2.834-2.206 1.614 0 2.647.56 2.926.732l.211.13.704-2.074-.14-.08c-.417-.245-1.607-.812-3.63-.812-3.178 0-5.399 1.87-5.399 4.548 0 2.159 1.39 3.668 4.376 4.75 2.115.788 2.902 1.595 2.902 2.98 0 1.566-1.215 2.538-3.168 2.538-1.273 0-2.582-.37-3.593-1.015l-.216-.138-.67 2.12.124.082c.941.626 2.712 1.08 4.212 1.08 4.285 0 5.804-2.604 5.804-4.834 0-2.299-1.218-3.717-4.205-4.891m8.692-5.27l-2.445.766v2.064h-1.79v1.985h1.79v6.083c0 1.47.282 2.501.863 3.153.557.608 1.413.944 2.412.944.942 0 1.611-.186 1.926-.297l.14-.05-.12-1.989-.238.073c-.316.097-.64.134-1.16.134-.966 0-1.378-.61-1.378-2.04v-6.01h3.007V23.87h-3.007v-2.83m9.112 4.53c2.242 0 3.263 2.179 3.263 4.204 0 2.491-1.393 4.299-3.31 4.299h-.025c-1.89 0-3.262-1.778-3.262-4.227 0-2.128 1.031-4.276 3.334-4.276zm.072-1.962c-3.488 0-5.923 2.595-5.923 6.308 0 3.603 2.357 6.119 5.732 6.119h.023c2.854 0 5.923-1.982 5.923-6.333 0-1.768-.549-3.288-1.588-4.394-1.046-1.112-2.487-1.7-4.167-1.7zm13.391.116l-.15-.038a2.397 2.397 0 00-.62-.078c-1.304 0-2.474.766-3.126 2l-.073-1.738h-2.237l.015.209c.066.983.094 2.087.094 3.577l-.023 8.117h2.492v-6.332c0-.345.024-.67.069-.963.281-1.521 1.31-2.504 2.623-2.504.255 0 .456.02.668.042l.267.027v-2.32m5.438 1.752c.76 0 1.375.234 1.83.696.717.727.843 1.799.859 2.313h-5.685c.231-1.435 1.131-3.009 2.996-3.009zm.166-1.89c-3.318 0-5.636 2.643-5.636 6.427 0 3.644 2.306 5.999 5.875 5.999 1.877 0 3.182-.41 3.946-.755l.15-.067-.478-1.851-.209.083c-.679.276-1.582.557-3.122.557-1.083 0-3.581-.356-3.734-3.603l8.046.024.032-.158c.05-.253.075-.593.075-1.037 0-2.592-1.295-5.62-4.945-5.62zM45.75 15.018c.282.046.694.046 1.131.046 2.391.01 3.69-1.2 3.69-3.298.012-1.857-1.145-2.999-3.51-2.999-.578 0-1.016.047-1.311.104v6.147zm-1.132-6.885a18.175 18.175 0 012.391-.161c1.607 0 2.752.323 3.51.957.784.634 1.234 1.545 1.234 2.802 0 1.269-.45 2.306-1.247 3.021-.823.727-2.16 1.119-3.843 1.119-.81 0-1.466-.023-2.045-.092V8.133zM55.8 15.167c1.08 0 1.89-.91 1.89-2.18 0-.945-.526-2.133-1.863-2.133-1.325 0-1.903 1.108-1.903 2.169 0 1.222.771 2.144 1.864 2.144h.013zm-.038.761c-1.671 0-2.982-1.106-2.982-2.87 0-1.869 1.375-2.965 3.085-2.965 1.787 0 2.995 1.165 2.995 2.86 0 2.076-1.607 2.975-3.084 2.975h-.014zm4.888-5.708l.835 2.826c.167.622.335 1.21.45 1.787h.039c.141-.565.347-1.165.553-1.776l1.015-2.837h.952l.964 2.79c.23.658.411 1.258.552 1.823h.039c.103-.565.27-1.153.476-1.81l.886-2.803h1.119l-2.005 5.582h-1.029l-.95-2.664a18.248 18.248 0 01-.554-1.845h-.026a15.312 15.312 0 01-.566 1.856l-1.002 2.653H61.37l-1.878-5.582h1.158m9.012 1.511c0-.588-.013-1.05-.052-1.51h1.003l.064.91h.026c.309-.519 1.028-1.038 2.057-1.038.86 0 2.198.462 2.198 2.376v3.333h-1.13v-3.218c0-.9-.374-1.66-1.441-1.66-.733 0-1.312.473-1.517 1.038a1.364 1.364 0 00-.077.473v3.367h-1.131v-4.07m7.134 4.07h1.131V7.614h-1.13zm5.579-.635c1.08 0 1.89-.91 1.89-2.18 0-.945-.527-2.133-1.864-2.133-1.324 0-1.903 1.108-1.903 2.169 0 1.222.772 2.144 1.865 2.144h.012zm-.038.761c-1.67 0-2.982-1.106-2.982-2.87 0-1.869 1.374-2.965 3.085-2.965 1.786 0 2.995 1.165 2.995 2.86 0 2.076-1.607 2.975-3.085 2.975h-.013zm7.803-2.975c-1.234-.023-2.635.173-2.635 1.257 0 .67.489.969 1.054.969.823 0 1.35-.461 1.53-.934a.929.929 0 00.052-.323v-.969zm1.106 1.511c0 .484.026.957.09 1.338H90.32l-.103-.704h-.038c-.334.439-1.016.83-1.902.83-1.26 0-1.903-.795-1.903-1.603 0-1.349 1.337-2.087 3.74-2.075v-.116c0-.46-.14-1.302-1.413-1.29-.592 0-1.196.149-1.633.414l-.257-.68c.514-.288 1.272-.485 2.057-.485 1.915 0 2.378 1.165 2.378 2.284v2.087zm6.054-1.972c0-.138-.012-.3-.051-.438-.166-.634-.784-1.165-1.632-1.165-1.17 0-1.865.923-1.865 2.145 0 1.142.631 2.075 1.84 2.075.758 0 1.452-.46 1.657-1.21.04-.138.052-.277.052-.438v-.969zm1.132-4.878v6.746c0 .496.014 1.06.051 1.442h-1.015l-.051-.969h-.026c-.347.623-1.093 1.095-2.108 1.095-1.505 0-2.674-1.14-2.674-2.836-.013-1.869 1.285-2.999 2.789-2.999.965 0 1.607.404 1.877.842h.026v-3.32h1.13zm7.173 7.553c1.08 0 1.89-.91 1.89-2.18 0-.945-.527-2.133-1.864-2.133-1.324 0-1.902 1.108-1.902 2.169 0 1.222.771 2.144 1.863 2.144h.013zm-.038.761c-1.672 0-2.983-1.106-2.983-2.87 0-1.869 1.377-2.965 3.085-2.965 1.788 0 2.996 1.165 2.996 2.86 0 2.076-1.607 2.975-3.085 2.975h-.013zm4.526-4.197c0-.588-.014-1.05-.052-1.51h1.003l.064.91h.026c.308-.519 1.028-1.038 2.056-1.038.862 0 2.199.462 2.199 2.376v3.333h-1.132v-3.218c0-.9-.372-1.66-1.44-1.66-.732 0-1.311.473-1.517 1.038a1.37 1.37 0 00-.076.473v3.367h-1.131v-4.07m11.222-2.849v1.337h1.62v.773h-1.62v3.01c0 .691.22 1.084.849 1.084.308 0 .488-.023.655-.07l.052.773a3.41 3.41 0 01-1.003.138c-.527 0-.952-.161-1.222-.426-.308-.312-.436-.808-.436-1.465v-3.044h-.965v-.773h.965V9.194l1.105-.311m2.893-1.269h1.13v3.483h.027c.18-.289.462-.554.81-.715a2.396 2.396 0 011.157-.289c.835 0 2.172.462 2.172 2.388v3.32h-1.131v-3.205c0-.911-.373-1.66-1.44-1.66-.733 0-1.298.46-1.517 1.014-.064.138-.077.288-.077.485v3.367h-1.131V7.614m11.082 4.844c.011-.635-.296-1.65-1.557-1.65-1.157 0-1.645.946-1.735 1.65h3.292zm-3.305.726c.026 1.372.99 1.937 2.121 1.937.81 0 1.312-.127 1.723-.277l.206.715c-.4.162-1.093.358-2.083.358-1.903 0-3.06-1.142-3.06-2.814 0-1.695 1.12-3.021 2.93-3.021 2.033 0 2.56 1.603 2.56 2.63 0 .207-.013.368-.039.484l-4.358-.012z" fill="#FFFFFE"/></g></svg>